<?xml version="1.0" encoding="utf-8"?>
<!-- Generator: Adobe Illustrator 24.0.0, SVG Export Plug-In . SVG Version: 6.00 Build 0)  -->
<svg version="1.1" id="Layer_1" xmlns="http://www.w3.org/2000/svg" xmlns:xlink="http://www.w3.org/1999/xlink" x="0px" y="0px"
	 viewBox="0 0 800 800" style="enable-background:new 0 0 800 800;" xml:space="preserve">
<style type="text/css">
	.st0{clip-path:url(#SVGID_2_);fill:#DC1A5B;}
	.st1{clip-path:url(#SVGID_4_);fill:#DC1A5B;}
	.st2{clip-path:url(#SVGID_6_);fill:#ED8CB2;}
	.st3{clip-path:url(#SVGID_8_);fill:#ED8CB2;}
	.st4{clip-path:url(#SVGID_10_);fill:#E64586;}
	.st5{clip-path:url(#SVGID_12_);fill:#E64586;}
	.st6{clip-path:url(#SVGID_14_);fill:#F5C1D2;}
	.st7{clip-path:url(#SVGID_16_);fill:#F5C1D2;}
	.st8{clip-path:url(#SVGID_18_);}
	.st9{clip-path:url(#SVGID_20_);}
	.st10{clip-path:url(#SVGID_22_);}
	.st11{clip-path:url(#SVGID_24_);}
	.st12{clip-path:url(#SVGID_26_);}
	.st13{clip-path:url(#SVGID_28_);fill:#DC1A5B;}
	.st14{clip-path:url(#SVGID_30_);}
	.st15{fill:#FFFFFF;}
	.st16{clip-path:url(#SVGID_32_);}
	.st17{clip-path:url(#SVGID_34_);}
	.st18{clip-path:url(#SVGID_36_);}
</style>
<g>
	<g>
		<defs>
			<rect id="SVGID_1_" x="57" y="91.5" width="687.5" height="687.5"/>
		</defs>
		<clipPath id="SVGID_2_">
			<use xlink:href="#SVGID_1_"  style="overflow:visible;"/>
		</clipPath>
		<path class="st0" d="M575.2,589.7c0,4.3-3.5,7.9-7.9,7.9h-29.5c-4.3,0-7.9-3.5-7.9-7.9v-29.5c0-4.3,3.5-7.9,7.9-7.9h29.5
			c4.3,0,7.9,3.5,7.9,7.9V589.7z"/>
	</g>
</g>
<g>
	<g>
		<defs>
			<rect id="SVGID_3_" x="57" y="91.5" width="687.5" height="687.5"/>
		</defs>
		<clipPath id="SVGID_4_">
			<use xlink:href="#SVGID_3_"  style="overflow:visible;"/>
		</clipPath>
		<path class="st1" d="M514.9,589.7c0,4.3-3.5,7.9-7.9,7.9h-29.5c-4.3,0-7.9-3.5-7.9-7.9v-29.5c0-4.3,3.5-7.9,7.9-7.9H507
			c4.3,0,7.9,3.5,7.9,7.9V589.7z"/>
	</g>
</g>
<g>
	<g>
		<defs>
			<rect id="SVGID_5_" x="57" y="91.5" width="687.5" height="687.5"/>
		</defs>
		<clipPath id="SVGID_6_">
			<use xlink:href="#SVGID_5_"  style="overflow:visible;"/>
		</clipPath>
		<path class="st2" d="M333.5,589.7c0,4.3-3.5,7.9-7.9,7.9h-29.5c-4.3,0-7.9-3.5-7.9-7.9v-29.5c0-4.3,3.5-7.9,7.9-7.9h29.5
			c4.3,0,7.9,3.5,7.9,7.9V589.7z"/>
	</g>
</g>
<g>
	<g>
		<defs>
			<rect id="SVGID_7_" x="57" y="91.5" width="687.5" height="687.5"/>
		</defs>
		<clipPath id="SVGID_8_">
			<use xlink:href="#SVGID_7_"  style="overflow:visible;"/>
		</clipPath>
		<path class="st3" d="M273,589.7c0,4.3-3.5,7.9-7.9,7.9h-29.3c-4.3,0-7.9-3.5-7.9-7.9v-29.5c0-4.3,3.5-7.9,7.9-7.9h29.5
			c4.3,0,7.9,3.5,7.9,7.9L273,589.7L273,589.7z"/>
	</g>
</g>
<g>
	<g>
		<defs>
			<rect id="SVGID_9_" x="57" y="91.5" width="687.5" height="687.5"/>
		</defs>
		<clipPath id="SVGID_10_">
			<use xlink:href="#SVGID_9_"  style="overflow:visible;"/>
		</clipPath>
		<path class="st4" d="M454.4,589.7c0,4.3-3.5,7.9-7.9,7.9H417c-4.3,0-7.9-3.5-7.9-7.9v-29.5c0-4.3,3.5-7.9,7.9-7.9h29.5
			c4.3,0,7.9,3.5,7.9,7.9V589.7z"/>
	</g>
</g>
<g>
	<g>
		<defs>
			<rect id="SVGID_11_" x="57" y="91.5" width="687.5" height="687.5"/>
		</defs>
		<clipPath id="SVGID_12_">
			<use xlink:href="#SVGID_11_"  style="overflow:visible;"/>
		</clipPath>
		<path class="st5" d="M393.8,589.7c0,4.3-3.5,7.9-7.9,7.9h-29.5c-4.3,0-7.9-3.5-7.9-7.9v-29.5c0-4.3,3.5-7.9,7.9-7.9h29.7
			c4.3,0,7.9,3.5,7.9,7.9L393.8,589.7L393.8,589.7z"/>
	</g>
</g>
<g>
	<g>
		<defs>
			<rect id="SVGID_13_" x="57" y="91.5" width="687.5" height="687.5"/>
		</defs>
		<clipPath id="SVGID_14_">
			<use xlink:href="#SVGID_13_"  style="overflow:visible;"/>
		</clipPath>
		<path class="st6" d="M212.4,589.7c0,4.3-3.5,7.9-7.9,7.9h-29.3c-4.3,0-7.9-3.5-7.9-7.9v-29.5c0-4.3,3.5-7.9,7.9-7.9h29.5
			c4.3,0,7.9,3.5,7.9,7.9L212.4,589.7L212.4,589.7z"/>
	</g>
</g>
<g>
	<g>
		<defs>
			<rect id="SVGID_15_" x="57" y="91.5" width="687.5" height="687.5"/>
		</defs>
		<clipPath id="SVGID_16_">
			<use xlink:href="#SVGID_15_"  style="overflow:visible;"/>
		</clipPath>
		<path class="st7" d="M152.1,589.7c0,4.3-3.5,7.9-7.9,7.9h-29.5c-4.3,0-7.9-3.5-7.9-7.9v-29.5c0-4.3,3.5-7.9,7.9-7.9h29.5
			c4.3,0,7.9,3.5,7.9,7.9V589.7z"/>
	</g>
</g>
<g>
	<g>
		<defs>
			<rect id="SVGID_17_" x="57" y="91.5" width="687.5" height="687.5"/>
		</defs>
		<clipPath id="SVGID_18_">
			<use xlink:href="#SVGID_17_"  style="overflow:visible;"/>
		</clipPath>
		<path class="st8" d="M110,285.5H98.8v102.8h20.7v-91.6C119.6,296.3,120,287,110,285.5"/>
	</g>
</g>
<g>
	<g>
		<defs>
			<rect id="SVGID_19_" x="57" y="91.5" width="687.5" height="687.5"/>
		</defs>
		<clipPath id="SVGID_20_">
			<use xlink:href="#SVGID_19_"  style="overflow:visible;"/>
		</clipPath>
		<path class="st9" d="M253.9,357.5l-61.6-71.7h-20.5v92.8c0,7.7,8.1,9.5,8.9,9.5h11.4V316l61.8,72.1h20.5v-93.2
			c0-1.4-1.8-9.1-9.1-9.1h-11.6L253.9,357.5L253.9,357.5z"/>
	</g>
</g>
<g>
	<g>
		<defs>
			<rect id="SVGID_21_" x="57" y="91.5" width="687.5" height="687.5"/>
		</defs>
		<clipPath id="SVGID_22_">
			<use xlink:href="#SVGID_21_"  style="overflow:visible;"/>
		</clipPath>
		<path class="st10" d="M400.1,285.5h-92.8v20.9h41.4V379c0,9.3,9.3,9.3,9.3,9.3h11.6v-82.1h40.4v-11.6
			C410.1,294.5,410.3,285.5,400.1,285.5"/>
	</g>
</g>
<g>
	<g>
		<defs>
			<rect id="SVGID_23_" x="57" y="91.5" width="687.5" height="687.5"/>
		</defs>
		<clipPath id="SVGID_24_">
			<use xlink:href="#SVGID_23_"  style="overflow:visible;"/>
		</clipPath>
		<path class="st11" d="M546,285.3h-93.9v103c0,0,85.1-0.2,94.1-0.2c8.9,0,8.5-8.1,8.5-8.1v-12.2h-82.1v-20.7h82.1v-20.5h-82.1
			v-20.7h82.1v-11.8C554.7,293.7,554.9,285.3,546,285.3"/>
	</g>
</g>
<g>
	<g>
		<defs>
			<rect id="SVGID_25_" x="57" y="91.5" width="687.5" height="687.5"/>
		</defs>
		<clipPath id="SVGID_26_">
			<use xlink:href="#SVGID_25_"  style="overflow:visible;"/>
		</clipPath>
		<path class="st12" d="M566.5,409.1h-93.9v103c0,0,85.1-0.2,94.1-0.2s8.5-8.1,8.5-8.1v-12.2h-82.1v-20.7H575v-20.5H493v-20.7H575
			v-12C575,417.4,575.4,409.1,566.5,409.1"/>
	</g>
</g>
<g>
	<g>
		<defs>
			<rect id="SVGID_27_" x="57" y="91.5" width="687.5" height="687.5"/>
		</defs>
		<clipPath id="SVGID_28_">
			<use xlink:href="#SVGID_27_"  style="overflow:visible;"/>
		</clipPath>
		<path class="st13" d="M609.8,409.1h93.9v103c0,0-85.1-0.2-94.1-0.2c-8.9,0-8.5-8.1-8.5-8.1v-12.2h82.1v-20.7H601v-20.5h82.1v-20.7
			H601v-12C601.2,417.4,600.8,409.1,609.8,409.1"/>
	</g>
</g>
<g>
	<g>
		<defs>
			<rect id="SVGID_29_" x="57" y="91.5" width="687.5" height="687.5"/>
		</defs>
		<clipPath id="SVGID_30_">
			<use xlink:href="#SVGID_29_"  style="overflow:visible;"/>
		</clipPath>
		<path class="st14" d="M694.3,285.5H601v92.6c0,10,9.8,9.8,9.8,9.8h10.8v-40.6h41.6v32.5c0,8.7,8.3,8.3,8.3,8.3h12v-40.6H704v-53.2
			C703.8,294.3,704.2,285.5,694.3,285.5"/>
	</g>
</g>
<rect x="621.8" y="305.4" class="st15" width="61.8" height="21.5"/>
<g>
	<g>
		<defs>
			<rect id="SVGID_31_" x="57" y="91.5" width="687.5" height="687.5"/>
		</defs>
		<clipPath id="SVGID_32_">
			<use xlink:href="#SVGID_31_"  style="overflow:visible;"/>
		</clipPath>
		<path class="st16" d="M191.9,409.1h-93v93.9c0,0,0.2,9.1,9.1,9.1h11.6v-41.2h81.9v-20.3h-82.1v-20.9h82.3v-11.8
			C201.6,408.9,191.9,409.1,191.9,409.1"/>
	</g>
</g>
<g>
	<g>
		<defs>
			<rect id="SVGID_33_" x="57" y="91.5" width="687.5" height="687.5"/>
		</defs>
		<clipPath id="SVGID_34_">
			<use xlink:href="#SVGID_33_"  style="overflow:visible;"/>
		</clipPath>
		<path class="st17" d="M315.2,409.3h-92.6v91.2c0,11.8,9.5,11.8,9.5,11.8h11.2l-0.4-41.4h61.8v41.4h20.5v-94.1
			C325.2,408,315.2,409.3,315.2,409.3"/>
	</g>
</g>
<rect x="243.1" y="429.8" class="st15" width="61.6" height="20.9"/>
<g>
	<g>
		<defs>
			<rect id="SVGID_35_" x="57" y="91.5" width="687.5" height="687.5"/>
		</defs>
		<clipPath id="SVGID_36_">
			<use xlink:href="#SVGID_35_"  style="overflow:visible;"/>
		</clipPath>
		<path class="st18" d="M442.2,409.1h-93.5v93c0,10.4,9.5,9.5,9.5,9.5h93.7v-20.3h-82.5v-61.8h82.3v-11
			C451.7,409.1,442.2,409.1,442.2,409.1"/>
	</g>
</g>
</svg>
